<?xml version="1.0" encoding="utf-8"?>
<!-- Generator: Adobe Illustrator 23.0.1, SVG Export Plug-In . SVG Version: 6.00 Build 0)  -->
<svg version="1.1" id="Layer_1" xmlns="http://www.w3.org/2000/svg" xmlns:xlink="http://www.w3.org/1999/xlink" x="0px" y="0px"
	 viewBox="0 0 251.49 251.48" style="enable-background:new 0 0 251.49 251.48;" xml:space="preserve">
<style type="text/css">
	.st0{fill:#fff;}
</style>
<g>
	<path class="st0" d="M132.25,176.36c1.8-1.87,2.71-4.14,2.71-6.82V116.2c0-4.81,1.17-9.22,3.51-13.23
		c2.34-4.01,5.61-7.19,9.83-9.52c4.21-2.34,8.92-3.51,14.14-3.51c14.7,0,22.06,8.76,22.06,26.27v53.34c0,2.67,0.9,4.95,2.71,6.82
		c1.8,1.87,4.11,2.81,6.92,2.81s5.08-0.9,6.82-2.71c1.74-1.8,2.61-4.11,2.61-6.92v-53.54c-0.04-29.15-11.74-43.72-35.13-43.72
		c-7.62,0-14.84,2.27-21.66,6.82s-11.7,9.62-14.64,15.24c-4.95-14.7-15.71-22.06-32.28-22.06c-6.82,0-13.13,1.77-18.95,5.31
		c-5.81,3.54-10.46,7.92-13.94,13.13v-7.02c0-2.67-0.9-4.95-2.71-6.82c-1.8-1.87-4.11-2.81-6.92-2.81c-2.67,0-4.91,0.94-6.72,2.81
		c-1.79,1.88-2.69,4.16-2.69,6.83v85.82c0,2.81,0.87,5.11,2.61,6.92c1.74,1.8,4.01,2.71,6.82,2.71s5.11-0.94,6.92-2.81
		c1.8-1.87,2.71-4.14,2.71-6.82V116c0-7.35,2.57-13.53,7.72-18.55c5.15-5.01,11.66-7.52,19.55-7.52c7.75,0,13.3,2.37,16.64,7.12
		s5.01,11.06,5.01,18.95v53.54c0,2.81,0.87,5.11,2.61,6.92c1.74,1.8,4.01,2.71,6.82,2.71S130.44,178.23,132.25,176.36z"/>
	<path class="st0" d="M71.36,60.07c0,0.59,0.31,1.13,0.81,1.44c0.27,0.16,0.57,0.25,0.88,0.25c0.26,0,0.53-0.06,0.77-0.19
		l56.76-29.19c0.56-0.29,0.91-0.87,0.91-1.5s-0.35-1.21-0.91-1.5L73.82,0.19C73.57,0.06,73.31,0,73.05,0c-0.3,0-0.61,0.08-0.88,0.25
		c-0.5,0.31-0.81,0.85-0.81,1.44v14.66C26.7,20.23,0.63,52.21,0.37,52.53c-0.29,0.36-0.42,0.83-0.35,1.28
		c0.06,0.46,0.31,0.87,0.69,1.14l22.7,16.22c0.3,0.21,0.64,0.31,0.98,0.31c0.5,0,0.99-0.22,1.32-0.63
		C41.69,50.87,64.7,45.4,71.36,44.2V60.07z"/>
	<path class="st0" d="M251.47,197.67c-0.06-0.46-0.31-0.87-0.69-1.14l-22.7-16.22c-0.3-0.21-0.64-0.31-0.98-0.31
		c-0.5,0-0.99,0.22-1.32,0.63c-15.98,19.98-38.99,25.45-45.65,26.65v-15.87c0-0.59-0.31-1.13-0.81-1.44
		c-0.27-0.16-0.57-0.25-0.88-0.25c-0.26,0-0.53,0.06-0.77,0.19l-56.76,29.19c-0.56,0.29-0.91,0.87-0.91,1.5s0.35,1.21,0.91,1.5
		l56.76,29.19c0.24,0.12,0.51,0.19,0.77,0.19c0.3,0,0.61-0.08,0.88-0.25c0.5-0.31,0.81-0.85,0.81-1.44v-14.66
		c44.66-3.88,70.73-35.86,70.99-36.18C251.41,198.59,251.54,198.12,251.47,197.67z"/>
</g>
</svg>
